<?xml version="1.0" encoding="iso-8859-1"?>
<!-- Generator: Adobe Illustrator 16.0.0, SVG Export Plug-In . SVG Version: 6.00 Build 0)  -->
<!DOCTYPE svg PUBLIC "-//W3C//DTD SVG 1.1//EN" "http://www.w3.org/Graphics/SVG/1.1/DTD/svg11.dtd">
<svg xmlns="http://www.w3.org/2000/svg" xmlns:xlink="http://www.w3.org/1999/xlink" version="1.1" id="Capa_1" x="0px" y="0px" width="512px" height="512px" viewBox="0 0 48.53 48.53" style="enable-background:new 0 0 48.53 48.53;" xml:space="preserve">
<g>
	<g id="Layer_1_copy_9_">
		<path d="M4.533,21.281c0.013,0.096,0.015,0.189,0.015,0.285c0,0.666,0,1.33,0,1.994c0,0.168-0.019,0.332-0.068,0.492    c-0.04,0.128-0.102,0.246-0.195,0.345c-0.117,0.127-0.263,0.199-0.427,0.24c-0.11,0.027-0.224,0.039-0.338,0.039    c-0.847,0-1.693,0-2.539-0.002c-0.264,0-0.49-0.1-0.691-0.266c-0.037-0.031-0.063-0.07-0.089-0.109    c-0.072-0.113-0.117-0.236-0.146-0.367C0.04,23.867,0.03,23.8,0.025,23.734c-0.002-0.027,0-0.057-0.025-0.076    c0-0.748,0-1.498,0-2.246c0.028-0.018,0.022-0.047,0.025-0.074c0.008-0.086,0.022-0.17,0.043-0.254    c0.032-0.121,0.079-0.236,0.151-0.342c0.024-0.035,0.053-0.066,0.087-0.094c0.155-0.123,0.33-0.205,0.526-0.24    C0.872,20.4,0.914,20.4,0.954,20.4c0.864,0,1.729,0,2.595,0c0.132,0,0.263,0.016,0.388,0.057c0.236,0.076,0.403,0.23,0.503,0.457    C4.491,21.031,4.518,21.156,4.533,21.281z M9.78,21.544c0,0.711-0.002,1.42,0.001,2.131c0.001,0.27-0.096,0.496-0.285,0.683    c-0.075,0.076-0.157,0.146-0.25,0.197c-0.116,0.064-0.242,0.101-0.375,0.113c-0.079,0.008-0.159,0.008-0.238,0.008    c-0.39,0-0.78,0-1.171,0c-0.02,0-0.04,0-0.061,0c-0.024,0.002-0.03,0.008-0.031,0.035c-0.001,0.02-0.001,0.041-0.001,0.061    c0,0.472,0,0.939,0,1.41c0,0.021,0.001,0.039,0,0.062c-0.002,0.024-0.007,0.028-0.034,0.03c-0.014,0-0.027,0-0.04,0    c-0.301,0-0.6,0-0.899,0c-0.016,0-0.032,0-0.049,0c-0.021-0.002-0.027-0.008-0.029-0.026c0-0.022,0-0.047,0-0.067    c0-0.791,0-1.58,0-2.369c0-0.76,0-1.518,0-2.275c0-0.156,0.016-0.313,0.057-0.465c0.024-0.092,0.06-0.18,0.106-0.264    c0.044-0.078,0.101-0.145,0.176-0.197c0.144-0.098,0.298-0.17,0.471-0.199c0.038-0.008,0.077-0.01,0.116-0.01    c0.52,0,1.039,0,1.56,0c0.104,0,0.207,0.014,0.309,0.041c0.285,0.072,0.479,0.246,0.583,0.521c0.037,0.1,0.06,0.205,0.072,0.311    C9.779,21.365,9.78,21.454,9.78,21.544z M8.727,21.775c0-0.041-0.003-0.082-0.014-0.121c-0.021-0.086-0.072-0.145-0.161-0.164    c-0.027-0.008-0.055-0.01-0.081-0.01c-0.261,0-0.522,0-0.783,0c-0.039,0-0.077,0.006-0.114,0.016    c-0.104,0.029-0.167,0.098-0.191,0.201c-0.011,0.045-0.014,0.09-0.014,0.137c0.001,0.279,0,0.563,0,0.844    c0,0.189,0.001,0.381,0,0.572c0,0.043,0.004,0.086,0.015,0.127c0.022,0.088,0.073,0.15,0.157,0.184    c0.051,0.021,0.104,0.031,0.16,0.031c0.249,0,0.499,0,0.749,0c0.118,0,0.194-0.066,0.251-0.158    c0.023-0.037,0.025-0.082,0.025-0.125c0-0.258,0-0.514,0-0.77C8.726,22.285,8.726,22.029,8.727,21.775z M29.934,22.201    c-0.004-0.266-0.008-0.531-0.006-0.797c0.002-0.162,0.023-0.32,0.084-0.473c0.084-0.207,0.229-0.352,0.433-0.439    c0.122-0.051,0.25-0.078,0.383-0.088C30.868,20.4,30.909,20.4,30.95,20.4c0.478,0,0.953,0,1.431,0c0.118,0,0.235,0.012,0.35,0.045    c0.303,0.082,0.496,0.271,0.586,0.57c0.039,0.129,0.059,0.262,0.059,0.395c0,0.277,0,0.555,0,0.832c0,0.01,0,0.021-0.002,0.033    c0,0.01-0.006,0.018-0.016,0.021c-0.012,0.006-0.023,0.01-0.037,0.016c-0.428,0.168-0.852,0.336-1.279,0.502    c-0.33,0.131-0.662,0.262-0.992,0.393c-0.012,0.004-0.021,0.008-0.031,0.014c-0.008,0.004-0.014,0.01-0.014,0.021    c-0.006,0.084,0,0.168,0.055,0.24c0.013,0.016,0.021,0.033,0.035,0.049c0.027,0.039,0.066,0.061,0.115,0.061    c0.021,0,0.041,0,0.062,0c0.671,0,1.345,0,2.017,0c0.095,0,0.084-0.01,0.084,0.082c0,0.309,0,0.617,0,0.926    c0,0.078,0.006,0.078-0.078,0.078c-0.381,0-0.762,0-1.144,0c-0.358,0-0.719,0-1.075,0c-0.138-0.002-0.272-0.008-0.406-0.037    c-0.194-0.043-0.356-0.142-0.487-0.291c-0.086-0.101-0.154-0.207-0.188-0.336c-0.018-0.068-0.029-0.137-0.037-0.207    c-0.021-0.156-0.012-0.313-0.014-0.469C29.934,22.958,29.939,22.579,29.934,22.201z M30.983,22.115    c0,0.016,0.002,0.031,0.004,0.047c0,0.01,0.008,0.018,0.019,0.016c0.024-0.008,0.049-0.014,0.071-0.023    c0.347-0.129,0.69-0.26,1.037-0.391c0.053-0.02,0.104-0.041,0.157-0.061c0.021-0.008,0.027-0.021,0.027-0.041    c-0.002-0.066-0.035-0.111-0.092-0.143c-0.049-0.029-0.104-0.039-0.162-0.039c-0.236,0-0.477,0.002-0.715,0    c-0.111-0.002-0.203,0.037-0.279,0.115c-0.045,0.045-0.067,0.096-0.067,0.158c0.002,0.061,0,0.123,0,0.184    C30.983,21.995,30.983,22.056,30.983,22.115z M14.053,21.083c0.028,0.115,0.041,0.232,0.041,0.352    c0,0.736,0.001,1.475-0.001,2.213c0,0.174-0.03,0.342-0.106,0.5c-0.085,0.179-0.21,0.316-0.382,0.414    c-0.106,0.062-0.22,0.095-0.342,0.105c-0.079,0.01-0.158,0.01-0.238,0.01c-0.436,0-0.871,0-1.307,0    c-0.163-0.002-0.326-0.018-0.484-0.065c-0.129-0.039-0.247-0.101-0.347-0.193c-0.113-0.106-0.183-0.241-0.221-0.393    c-0.027-0.104-0.04-0.209-0.041-0.316c-0.001-0.295-0.002-0.59,0-0.885c0.002-0.139,0.02-0.275,0.063-0.41    c0.085-0.262,0.258-0.436,0.519-0.525c0.119-0.041,0.242-0.059,0.367-0.066c0.033-0.002,0.068-0.002,0.102-0.002    c0.427,0,0.854,0,1.28,0c0.105,0,0.091,0.014,0.092-0.096c0.001-0.033-0.001-0.068-0.011-0.102    c-0.019-0.059-0.057-0.098-0.112-0.119c-0.037-0.014-0.074-0.021-0.113-0.021c-0.022-0.002-0.045-0.002-0.068-0.002    c-0.669,0-1.339,0-2.008,0c-0.019,0-0.037,0.002-0.056,0c-0.033,0-0.036-0.004-0.037-0.041c-0.001-0.014,0-0.027,0-0.041    c0-0.305-0.001-0.607,0-0.912c0-0.096-0.008-0.086,0.082-0.086c0.402,0,0.804,0,1.205,0c0.365,0,0.731,0,1.097,0    c0.132,0,0.263,0.012,0.39,0.045c0.141,0.037,0.271,0.096,0.38,0.191C13.931,20.757,14.012,20.91,14.053,21.083z M13.048,23.146    c-0.001-0.033,0-0.068-0.002-0.102c-0.008-0.105-0.069-0.178-0.171-0.203c-0.038-0.008-0.076-0.014-0.114-0.014    c-0.137,0.002-0.273,0.002-0.409,0.002c-0.135,0-0.271,0-0.407,0c-0.032,0-0.063,0.002-0.094,0.008    c-0.122,0.018-0.143,0.062-0.163,0.168c-0.002,0.006-0.002,0.014-0.002,0.021c-0.001,0.123-0.003,0.246-0.003,0.367    c0,0.039,0.016,0.072,0.043,0.098c0.063,0.063,0.136,0.104,0.229,0.102c0.108-0.002,0.217,0,0.326,0c0.165,0,0.331,0,0.497,0    c0.052,0,0.104-0.008,0.152-0.031c0.055-0.023,0.091-0.063,0.106-0.123c0.008-0.025,0.011-0.053,0.011-0.08    C13.048,23.286,13.048,23.216,13.048,23.146z M27.578,24.677c0.305,0,0.604,0,0.906,0c0.014,0,0.027,0,0.041,0    c0.027-0.002,0.031-0.006,0.033-0.031c0.002-0.02,0-0.037,0-0.055c0-0.252,0-0.506,0-0.756c0-0.76,0-1.518,0-2.275    c0-0.084-0.006-0.078,0.076-0.078c0.2,0,0.403,0,0.604,0c0.065,0,0.065,0,0.065-0.063c0-0.318,0-0.637,0-0.953    c0-0.012,0-0.023-0.002-0.035c0-0.023-0.008-0.029-0.033-0.031c-0.012,0-0.022,0-0.034,0c-0.142,0-0.281,0-0.423,0    c-0.071,0-0.146,0-0.217,0c-0.031,0-0.037-0.006-0.037-0.035c-0.002-0.074-0.002-0.148,0-0.225    c0.002-0.029,0.009-0.059,0.017-0.086c0.024-0.084,0.08-0.141,0.162-0.172c0.053-0.02,0.104-0.027,0.159-0.027    c0.117,0,0.231,0,0.349,0c0.06,0,0.062,0,0.062-0.063c0-0.309,0-0.617,0-0.926c0-0.059-0.002-0.059-0.062-0.059    c-0.203-0.002-0.408-0.002-0.611,0c-0.065,0-0.133,0.004-0.197,0.014c-0.231,0.031-0.44,0.115-0.618,0.27    c-0.138,0.121-0.232,0.268-0.279,0.443c-0.024,0.102-0.035,0.205-0.035,0.311c0,0.785,0,1.57,0,2.355c0,0.799,0,1.6,0,2.398    C27.502,24.679,27.498,24.677,27.578,24.677z M0.146,20.433c0.007-0.004,0.014-0.01,0.021-0.016    c0.094-0.072,0.193-0.135,0.303-0.182c0.07-0.031,0.143-0.057,0.218-0.076c0.021-0.004,0.029-0.014,0.034-0.035    c0.016-0.068,0.036-0.137,0.061-0.201c0.243-0.652,0.89-1.082,1.599-1.035c0.222,0.014,0.432,0.068,0.626,0.172    c0.424,0.223,0.699,0.566,0.821,1.031c0.017,0.063,0.016,0.063,0.076,0.076c0.185,0.043,0.353,0.121,0.496,0.244    c0.008,0.006,0.014,0.02,0.031,0.008c0.001-0.027,0.003-0.057,0.003-0.086c0-0.104-0.01-0.207-0.021-0.313    c-0.014-0.129-0.036-0.256-0.071-0.379c-0.204-0.725-0.778-1.293-1.504-1.488c-0.117-0.031-0.234-0.053-0.354-0.066    c-0.012,0-0.027,0.004-0.034-0.014c-0.087,0-0.172,0-0.259,0c-0.045,0-0.091,0-0.137,0c0,0.006,0.001,0.01,0.001,0.014    c-0.067,0.012-0.136,0.02-0.202,0.033c-0.503,0.104-0.918,0.355-1.242,0.754c-0.24,0.293-0.391,0.631-0.453,1.006    c-0.021,0.133-0.025,0.266-0.033,0.4c-0.002,0.047,0,0.094,0.001,0.143C0.126,20.433,0.137,20.439,0.146,20.433z M25.825,24.667    c-0.078,0.01-0.153,0.01-0.231,0.01c-0.435,0-0.871,0-1.307,0c-0.166,0-0.33-0.016-0.49-0.065    c-0.132-0.039-0.253-0.103-0.353-0.197c-0.114-0.11-0.183-0.246-0.221-0.4c-0.024-0.098-0.036-0.197-0.036-0.295    c-0.003-0.307-0.004-0.613,0-0.92c0.002-0.16,0.026-0.316,0.091-0.465c0.08-0.188,0.212-0.324,0.398-0.41    c0.11-0.049,0.227-0.076,0.347-0.092c0.086-0.012,0.172-0.012,0.259-0.012c0.408,0,0.816,0,1.225,0c0.016,0,0.031,0,0.048,0    c0.052,0,0.053,0,0.054-0.053c0-0.031,0.002-0.061-0.001-0.09c-0.012-0.111-0.067-0.16-0.153-0.184    c-0.045-0.012-0.09-0.014-0.135-0.014c-0.677,0-1.353,0-2.029,0c-0.021,0-0.041,0-0.062,0c-0.016,0-0.026-0.01-0.026-0.023    c0-0.018,0-0.033,0-0.049c0-0.311,0-0.623,0-0.934c0-0.078-0.003-0.074,0.072-0.074c0.407,0,0.813,0,1.22,0    c0.366,0,0.731,0,1.096,0c0.133,0,0.263,0.012,0.391,0.047c0.139,0.035,0.266,0.094,0.374,0.189    c0.139,0.121,0.219,0.275,0.262,0.451c0.027,0.119,0.039,0.238,0.039,0.357c0,0.73,0,1.463,0,2.193    c0,0.188-0.031,0.371-0.121,0.539c-0.084,0.16-0.201,0.289-0.359,0.381C26.064,24.62,25.948,24.654,25.825,24.667z M25.607,23.156    c0-0.037,0-0.072-0.001-0.109c-0.007-0.102-0.064-0.174-0.162-0.201c-0.035-0.01-0.07-0.018-0.106-0.018    c-0.284,0.002-0.567,0.002-0.851,0.002c-0.039-0.002-0.077,0.006-0.114,0.016c-0.059,0.012-0.097,0.047-0.112,0.105    c-0.008,0.027-0.016,0.057-0.016,0.086c-0.001,0.117-0.002,0.236-0.002,0.354c0,0.041,0.018,0.074,0.046,0.104    c0.065,0.063,0.138,0.1,0.23,0.098c0.136-0.004,0.271,0,0.409,0c0.136,0,0.271,0,0.407,0c0.037,0,0.072-0.004,0.107-0.014    c0.105-0.027,0.161-0.096,0.164-0.205C25.607,23.3,25.607,23.228,25.607,23.156z M41.493,24.261    c-0.181,0.291-0.442,0.473-0.785,0.541c-0.086,0.019-0.176,0.025-0.266,0.025h-1.253c-0.194,0-0.362-0.027-0.516-0.086    c-0.313-0.121-0.539-0.333-0.666-0.63c-0.043-0.101-0.07-0.211-0.09-0.349c-0.01-0.097-0.012-0.19-0.012-0.283v-0.52    c0-0.144,0.016-0.282,0.043-0.411c0.025-0.128,0.068-0.244,0.133-0.353c0.117-0.208,0.295-0.359,0.527-0.448    c0.141-0.055,0.293-0.086,0.453-0.092c0.049-0.003,0.096-0.005,0.143-0.005h1.898c0-0.044,0-0.088-0.002-0.132    c-0.002-0.137-0.023-0.251-0.066-0.35c-0.051-0.115-0.115-0.205-0.195-0.274c-0.057-0.05-0.111-0.079-0.178-0.091    c-0.102-0.021-0.193-0.03-0.289-0.03l-0.734-0.001l-1.479,0.001c-0.025,0-0.051-0.001-0.076-0.003    c-0.1-0.008-0.162-0.074-0.168-0.178v-0.188c0.002-0.065,0.027-0.17,0.168-0.188l0.064-0.002c0.697,0,1.395,0,2.092,0.002    c0.195,0,0.371,0.013,0.531,0.039c0.164,0.026,0.311,0.099,0.434,0.215c0.115,0.107,0.213,0.241,0.293,0.409    c0.076,0.156,0.123,0.323,0.143,0.498c0.008,0.071,0.011,0.146,0.011,0.22l-0.003,0.631l0.003,1.262    c0,0.136-0.011,0.279-0.029,0.426C41.605,24.033,41.562,24.146,41.493,24.261z M41.094,22.203    c-0.637-0.001-1.272-0.001-1.914-0.001c-0.08,0-0.153,0.007-0.223,0.023c-0.219,0.048-0.363,0.172-0.439,0.377    c-0.032,0.085-0.051,0.176-0.051,0.269c-0.002,0.253-0.002,0.507,0,0.76c0,0.075,0.014,0.156,0.035,0.244    c0.01,0.034,0.023,0.067,0.045,0.096c0.021,0.034,0.055,0.066,0.102,0.105c0.158,0.131,0.33,0.194,0.523,0.194h0.188h0.377    c0.235,0,0.471,0,0.707-0.002c0.116,0,0.217-0.018,0.309-0.053c0.138-0.052,0.229-0.144,0.283-0.28    c0.039-0.101,0.058-0.207,0.058-0.326V22.203L41.094,22.203z M41.821,28.274c0.252,0,0.504,0,0.756,0c0.019,0,0.035,0,0.056,0    c0.021-0.002,0.026-0.008,0.026-0.028c0-0.039,0-0.078-0.002-0.116c0-0.107,0-0.214,0-0.32c0-0.025-0.006-0.031-0.031-0.031    c-0.016,0-0.03,0-0.047,0c-0.303,0-0.604,0-0.905,0c-0.05,0-0.097,0.004-0.144,0.012c-0.24,0.043-0.349,0.223-0.354,0.412    c-0.004,0.135,0,0.268,0,0.4c-0.002,0.065,0.017,0.135,0.06,0.186c0.103,0.129,0.229,0.213,0.397,0.215c0.125,0,0.25,0,0.375,0    c0.016,0,0.031-0.002,0.047,0c0.051,0.006,0.084,0.041,0.09,0.09c0.002,0.016,0.002,0.031,0,0.047    c-0.004,0.058-0.032,0.086-0.088,0.094c-0.021,0.003-0.041,0.003-0.062,0.003c-0.248,0-0.496,0-0.742,0c-0.02,0-0.035,0-0.055,0    c-0.031,0.002-0.037,0.006-0.037,0.036c0,0.142,0,0.281,0,0.423c0,0.036,0.006,0.038,0.041,0.041c0.016,0,0.031,0,0.047,0    c0.156,0,0.312,0,0.471,0c0.033,0,0.066,0,0.103,0c0.131,0,0.26,0,0.389,0c0.08-0.003,0.16-0.013,0.228-0.062    c0.127-0.094,0.207-0.215,0.211-0.379c0.002-0.1,0.002-0.199,0.01-0.299c0.01-0.15-0.051-0.275-0.154-0.377    c-0.07-0.074-0.158-0.111-0.262-0.111c-0.139,0-0.271,0-0.41,0c-0.029,0-0.062-0.004-0.094-0.012    c-0.014-0.004-0.025-0.01-0.035-0.02c-0.031-0.025-0.049-0.086-0.031-0.125c0.02-0.041,0.049-0.07,0.098-0.074    C41.784,28.274,41.801,28.274,41.821,28.274z M40.36,27.854c0-0.021,0-0.041-0.003-0.061c0-0.01-0.008-0.018-0.018-0.021    c-0.014,0-0.022,0-0.033,0c-0.129,0-0.256,0-0.383,0c-0.012,0-0.021,0-0.033,0c-0.014,0.004-0.021,0.012-0.021,0.021    c-0.002,0.021-0.002,0.041-0.002,0.062c0,0.255,0,0.507,0,0.759c0,0.149,0,0.303,0,0.455c0,0.021,0,0.041-0.006,0.062    c-0.018,0.061-0.064,0.098-0.133,0.102c-0.051,0.002-0.104,0-0.154,0c-0.072,0-0.146,0.002-0.219,0    c-0.068-0.002-0.104-0.035-0.117-0.102c-0.008-0.035-0.01-0.072-0.01-0.107c0-0.389,0-0.777,0-1.166c0-0.02,0-0.039,0-0.061    c-0.002-0.013-0.01-0.021-0.021-0.021c-0.012,0-0.021,0-0.033,0c-0.127,0-0.256,0-0.381,0c-0.014,0-0.023,0-0.035,0    c-0.014,0.002-0.02,0.012-0.021,0.023c0,0.02,0,0.041,0,0.061c0,0.268,0,0.535,0,0.805c0,0.201,0.002,0.402,0,0.605    c-0.002,0.152,0.065,0.27,0.178,0.367c0.056,0.047,0.117,0.073,0.188,0.086c0.043,0.006,0.086,0.01,0.129,0.01    c0.179,0,0.357,0,0.537,0c0.117,0,0.099-0.018,0.099,0.111c0,0.002,0,0.004,0,0.006c-0.015,0.051-0.037,0.088-0.088,0.104    c-0.03,0.012-0.06,0.012-0.088,0.012c-0.289,0-0.58,0-0.871,0c-0.021,0-0.041,0-0.062,0.002c-0.014,0-0.021,0.006-0.021,0.021    c-0.002,0.01-0.002,0.019-0.002,0.026c0,0.146,0,0.295,0,0.441c0.424,0,0.846,0,1.268,0c0.012-0.018,0.031-0.018,0.049-0.021    c0.137-0.047,0.226-0.142,0.271-0.275c0.024-0.074,0.039-0.152,0.039-0.234c-0.002-0.33-0.002-0.662-0.002-0.992    C40.36,28.572,40.36,28.212,40.36,27.854z M36.424,28.593c0,0.223-0.002,0.445,0.002,0.668c0.002,0.154-0.063,0.271-0.18,0.365    c-0.086,0.07-0.188,0.104-0.301,0.104c-0.193-0.002-0.387,0-0.58,0c-0.018,0-0.035,0-0.055,0    c-0.012,0.004-0.021,0.012-0.021,0.022c-0.002,0.021-0.002,0.041-0.002,0.062c0,0.215,0,0.428,0,0.643c-0.168,0-0.336,0-0.504,0    c0.01-0.027,0.006-0.055,0.006-0.082c0-0.674,0-1.348,0-2.021c0-0.08,0.007-0.157,0.022-0.235c0.007-0.037,0.019-0.074,0.033-0.11    c0.037-0.084,0.099-0.146,0.185-0.183c0.075-0.031,0.155-0.05,0.237-0.05c0.22,0,0.438,0,0.66,0c0.075,0,0.148,0.015,0.219,0.037    c0.134,0.047,0.218,0.14,0.257,0.273c0.014,0.053,0.021,0.104,0.021,0.16C36.424,28.363,36.424,28.478,36.424,28.593z     M35.932,28.397c0-0.069-0.045-0.123-0.119-0.123c-0.129,0-0.262,0-0.395,0c-0.045,0-0.076,0.023-0.098,0.062    s-0.031,0.074-0.031,0.117c0,0.201,0,0.403,0,0.604c0,0.013,0,0.027,0.002,0.039c0.012,0.082,0.043,0.125,0.137,0.135    c0.017,0,0.029,0,0.047,0c0.07,0,0.142,0,0.211,0c0.041,0,0.082,0,0.123,0c0.054-0.002,0.088-0.026,0.109-0.075    c0.01-0.021,0.012-0.043,0.012-0.065c0-0.113,0-0.228,0-0.341C35.93,28.632,35.928,28.515,35.932,28.397z M35.605,24.827h1.49    h0.008c0.097-0.01,0.16-0.078,0.166-0.18v-0.168c0-0.174-0.104-0.209-0.192-0.209h-1.431c-0.079,0-0.161-0.006-0.241-0.016    c-0.062-0.006-0.119-0.014-0.173-0.031c-0.129-0.045-0.213-0.096-0.272-0.166c-0.067-0.078-0.118-0.174-0.149-0.281    c-0.029-0.108-0.045-0.228-0.045-0.372l-0.002-1.17l0.002-0.586c0-0.104-0.002-0.206,0.006-0.31    c0.006-0.061,0.014-0.12,0.029-0.178c0.024-0.096,0.067-0.169,0.129-0.225c0.041-0.036,0.09-0.066,0.162-0.096    c0.118-0.046,0.254-0.067,0.407-0.067l0.502-0.001l1.009,0.001c0.024,0,0.051-0.001,0.062-0.002l0.178-0.023v-0.355l-0.025-0.162    l-0.137-0.013c-0.023-0.002-0.051-0.003-0.074-0.003H35.67c-0.125,0-0.252,0.001-0.379,0.011c-0.096,0.008-0.209,0.021-0.32,0.056    c-0.192,0.063-0.356,0.181-0.508,0.357c-0.111,0.133-0.188,0.288-0.221,0.461c-0.018,0.092-0.025,0.188-0.025,0.293v2.16    c0,0.139,0.021,0.281,0.062,0.422c0.072,0.258,0.221,0.469,0.438,0.625c0.121,0.084,0.242,0.141,0.363,0.166    C35.241,24.808,35.412,24.827,35.605,24.827z M38.373,28.081c0.016,0.051,0.021,0.102,0.021,0.152c-0.002,0.176,0,0.352,0,0.523    c0,0.178,0.002,0.356-0.002,0.536c-0.002,0.146-0.062,0.265-0.178,0.353c-0.076,0.057-0.162,0.08-0.257,0.084    c-0.051,0.004-0.104,0-0.155,0c-0.175,0-0.351,0-0.523,0c-0.086,0-0.172-0.01-0.254-0.037c-0.084-0.033-0.154-0.088-0.201-0.166    c-0.027-0.053-0.047-0.107-0.055-0.166c-0.019-0.166-0.006-0.332-0.008-0.496c0-0.041,0.008-0.082,0.02-0.121    c0.043-0.17,0.154-0.268,0.322-0.307c0.055-0.012,0.107-0.014,0.162-0.014c0.188,0.002,0.373,0,0.559,0c0.02,0,0.037,0,0.057,0    c0.012,0,0.021-0.009,0.021-0.021c0-0.017,0-0.031,0-0.048c-0.002-0.075-0.021-0.09-0.098-0.104    c-0.019-0.004-0.039-0.002-0.062-0.002c-0.299,0-0.601,0-0.897,0c-0.078,0-0.074,0.007-0.074-0.073c0-0.109,0-0.222,0-0.334    c0-0.013,0-0.025,0-0.039c0-0.017,0.01-0.027,0.025-0.027s0.036,0,0.055,0c0.338,0,0.676,0,1.014,0    c0.076,0,0.148,0.01,0.225,0.027C38.239,27.839,38.336,27.929,38.373,28.081z M37.903,29.003c0.004-0.066-0.027-0.094-0.101-0.113    c-0.016-0.004-0.031-0.002-0.049-0.002c-0.059,0-0.117,0-0.176,0c-0.014,0-0.023,0-0.035,0c-0.062,0-0.121-0.002-0.184,0.002    c-0.066,0.002-0.096,0.031-0.098,0.099c0,0.049,0,0.101,0,0.147c0.002,0.055,0.037,0.094,0.09,0.105    c0.021,0.004,0.041,0.006,0.062,0.006c0.113,0,0.229,0,0.342,0c0.018,0,0.035-0.002,0.053-0.004    c0.035-0.004,0.062-0.021,0.076-0.051c0.012-0.023,0.019-0.049,0.019-0.072C37.903,29.081,37.901,29.044,37.903,29.003z     M43.151,24.595v-2.994c0-0.075,0-0.15,0.01-0.226c0.013-0.1,0.033-0.182,0.065-0.255c0.045-0.105,0.113-0.186,0.207-0.242    c0.058-0.032,0.113-0.056,0.174-0.07c0.078-0.021,0.164-0.031,0.273-0.033l0.074-0.001l0.158,0.001    c0.021,0,0.045-0.001,0.072-0.004l0.146-0.043V20.39l-0.021-0.154l-0.133-0.016c-0.141-0.02-0.279-0.005-0.414,0.005    c-0.123,0.007-0.231,0.023-0.33,0.051c-0.217,0.056-0.396,0.159-0.532,0.309c-0.121,0.135-0.203,0.292-0.253,0.48    c-0.038,0.154-0.059,0.319-0.059,0.503v3.029l0.035,0.23h0.318c0.033,0,0.101,0,0.15-0.053    C43.151,24.724,43.151,24.659,43.151,24.595z M45.409,27.052c-0.106,0.006-0.209,0.041-0.297,0.107    c-0.08,0.061-0.134,0.143-0.156,0.236c-0.012,0.041-0.01,0.082-0.01,0.123c0,0.35,0,0.697,0,1.051c0,0.357,0,0.721,0,1.082    c0,0.02,0,0.041,0.002,0.061c0.002,0.01,0.008,0.016,0.019,0.018c0.02,0.002,0.034,0.002,0.055,0.002c0.106,0,0.219,0,0.326,0    c0.104,0,0.092,0.013,0.092-0.09c0-0.426,0-0.854,0-1.278c0-0.022,0.002-0.048,0.003-0.067c0.001-0.011,0.009-0.017,0.019-0.019    c0.018-0.003,0.031-0.003,0.049-0.003c0.066,0,0.137,0,0.203,0c0.016,0,0.031,0,0.049,0c0.021-0.002,0.025-0.01,0.027-0.028    c0.002-0.006,0.002-0.01,0.002-0.015c0-0.139,0-0.276,0-0.416c0-0.034-0.008-0.041-0.047-0.041c-0.068,0-0.137,0-0.205,0    c-0.113-0.002-0.098,0.017-0.098-0.104c-0.002-0.008,0-0.018,0.002-0.027c0.01-0.047,0.035-0.082,0.08-0.102    c0.029-0.01,0.059-0.016,0.088-0.016c0.033,0,0.068,0,0.102,0c0.018,0,0.033,0,0.049,0c0.019-0.004,0.025-0.012,0.025-0.025    c0.004-0.012,0.004-0.023,0.004-0.033c0-0.121,0-0.242,0-0.361c0-0.008,0-0.014,0-0.02c-0.004-0.031-0.008-0.037-0.039-0.037    C45.637,27.05,45.521,27.046,45.409,27.052z M48.53,19.011v4.443c0,0.219-0.033,0.423-0.103,0.604    c-0.119,0.328-0.35,0.555-0.68,0.673c-0.119,0.046-0.252,0.072-0.416,0.086c-0.104,0.009-0.203,0.011-0.305,0.011h-0.637h-0.316    c-0.146-0.004-0.295-0.019-0.439-0.045c-0.096-0.019-0.18-0.046-0.258-0.091c-0.303-0.163-0.5-0.41-0.578-0.734    c-0.037-0.153-0.057-0.3-0.057-0.448v-1.906c0-0.191,0.025-0.373,0.076-0.539c0.057-0.19,0.146-0.347,0.271-0.477    c0.137-0.141,0.311-0.241,0.516-0.301c0.148-0.044,0.312-0.064,0.512-0.064h1.855l0.002-1.212    c-0.002-0.117,0.067-0.187,0.194-0.187h0.171C48.457,18.824,48.526,18.892,48.53,19.011z M47.975,20.775h-1.66    c-0.004,0-0.006,0-0.01,0c-0.096,0-0.188,0-0.281,0.005c-0.084,0.006-0.163,0.019-0.237,0.038    c-0.076,0.02-0.142,0.052-0.201,0.104c-0.051,0.044-0.096,0.093-0.139,0.143c-0.043,0.054-0.076,0.109-0.097,0.164    c-0.032,0.097-0.049,0.186-0.049,0.271v2.062c0,0.055,0,0.083,0.002,0.112c0.004,0.088,0.021,0.163,0.043,0.23    c0.043,0.116,0.111,0.193,0.215,0.244c0.039,0.019,0.084,0.039,0.129,0.055c0.142,0.046,0.287,0.068,0.433,0.068h0.871    c0.11,0,0.217-0.008,0.312-0.023c0.182-0.033,0.328-0.098,0.451-0.197c0.022-0.02,0.047-0.042,0.065-0.066    c0.051-0.062,0.09-0.139,0.114-0.232c0.025-0.094,0.039-0.193,0.039-0.304V20.775z M18.307,20.4c-0.289,0-0.577,0-0.865,0    c-0.104,0-0.092-0.012-0.092,0.09c0,0.924,0,1.848,0,2.771c0,0.021,0,0.041,0,0.061c-0.002,0.047-0.015,0.092-0.045,0.127    c-0.067,0.086-0.153,0.141-0.267,0.143c-0.257,0-0.513,0-0.77,0c-0.135-0.002-0.22-0.074-0.253-0.205    c-0.014-0.055-0.014-0.111-0.014-0.168c0-0.914,0-1.826,0-2.738c0-0.086,0.007-0.08-0.082-0.08c-0.298,0-0.594,0-0.893,0    c-0.092,0-0.083-0.008-0.083,0.084c0,0.629,0,1.258,0,1.887c0,0.393,0,0.785,0,1.178c0,0.113,0.006,0.223,0.03,0.332    c0.036,0.164,0.109,0.313,0.217,0.441c0.137,0.162,0.304,0.279,0.515,0.324c0.1,0.023,0.201,0.031,0.304,0.031    c0.416,0,0.831,0,1.247,0c0.02,0,0.04,0,0.061,0c0.024,0.002,0.031,0.008,0.031,0.035c0.001,0.071,0.002,0.145,0,0.217    c-0.001,0.058-0.022,0.104-0.061,0.146c-0.054,0.061-0.119,0.1-0.198,0.109c-0.036,0.006-0.072,0.008-0.108,0.008    c-0.654,0-1.309,0-1.961,0c-0.082,0-0.076-0.004-0.076,0.078c0,0.309,0,0.617,0,0.928c0,0.012-0.001,0.025,0,0.039    c0,0.027,0.006,0.033,0.03,0.035c0.019,0,0.037,0,0.056,0c0.775,0,1.552,0,2.329,0c0.07,0,0.14-0.002,0.21-0.014    c0.182-0.027,0.343-0.101,0.478-0.228c0.141-0.134,0.229-0.297,0.284-0.479c0.048-0.158,0.063-0.32,0.063-0.484    c0.001-0.76,0-1.521,0-2.281c0-0.768,0-1.535,0-2.301C18.395,20.39,18.404,20.4,18.307,20.4z M44.576,28.062    c0.021,0.062,0.029,0.127,0.029,0.193c-0.002,0.336-0.002,0.672,0,1.008c0,0.062-0.01,0.123-0.031,0.18    c-0.068,0.179-0.203,0.273-0.395,0.289c-0.013,0-0.021,0-0.033,0c-0.225,0-0.449,0-0.674,0c-0.062,0-0.127-0.008-0.188-0.022    c-0.188-0.047-0.301-0.194-0.31-0.377c-0.004-0.032-0.004-0.065-0.004-0.103c-0.002-0.114-0.002-0.229,0-0.348    c0-0.037,0.002-0.076,0.01-0.113c0.039-0.184,0.152-0.289,0.33-0.33c0.054-0.012,0.104-0.014,0.158-0.014c0.185,0,0.371,0,0.558,0    c0.021,0,0.036,0,0.055,0c0.017,0,0.022-0.012,0.022-0.027c0-0.024,0-0.049,0-0.073c-0.002-0.031-0.02-0.052-0.047-0.062    c-0.021-0.008-0.047-0.014-0.071-0.014c-0.043,0-0.087,0-0.13,0c-0.266,0-0.53,0-0.797,0c-0.021,0-0.041,0-0.062,0    c-0.012-0.002-0.021-0.01-0.021-0.023c-0.002-0.012-0.002-0.021-0.002-0.033c0-0.12,0-0.239,0-0.36c0-0.01,0-0.022,0.002-0.032    c0-0.015,0.01-0.021,0.021-0.021c0.019,0,0.035,0,0.056,0c0.174,0,0.35,0,0.522,0c0.17,0,0.34,0,0.51,0    c0.082,0,0.164,0.014,0.242,0.035C44.455,27.849,44.537,27.935,44.576,28.062z M44.105,28.978c0-0.028-0.012-0.047-0.036-0.062    c-0.025-0.017-0.052-0.026-0.082-0.026c-0.136,0-0.271,0-0.406,0c-0.019,0-0.037,0.004-0.053,0.01    c-0.025,0.008-0.043,0.025-0.052,0.051c-0.004,0.014-0.008,0.027-0.01,0.041c0,0.047-0.002,0.094,0,0.145    c0.006,0.062,0.049,0.104,0.113,0.111c0.018,0.002,0.033,0.002,0.047,0.002c0.057,0,0.109,0,0.164,0c0.02,0,0.037,0,0.057,0    c0.051,0,0.103-0.004,0.154-0.002c0.055,0.002,0.104-0.051,0.104-0.104C44.104,29.085,44.104,29.031,44.105,28.978z     M48.084,29.111c-0.197,0.002-0.316,0.174-0.307,0.307c-0.006,0.166,0.125,0.312,0.311,0.313c0.18,0.002,0.311-0.153,0.309-0.313    C48.395,29.269,48.271,29.111,48.084,29.111z M33.174,29.111c-0.168,0-0.309,0.139-0.309,0.307c0,0.162,0.115,0.31,0.311,0.313    c0.187,0.007,0.314-0.164,0.308-0.307C33.494,29.277,33.364,29.111,33.174,29.111z M47.534,28.119    c0.01,0.043,0.015,0.086,0.015,0.129c-0.002,0.117-0.002,0.235,0,0.354c0,0.029-0.011,0.045-0.039,0.058    c-0.125,0.045-0.25,0.092-0.375,0.142c-0.22,0.082-0.438,0.164-0.654,0.246c-0.062,0.022-0.062,0.026-0.051,0.09    c0.004,0.016,0.008,0.03,0.014,0.045c0.016,0.031,0.039,0.049,0.072,0.053c0.021,0,0.037,0,0.057,0c0.297,0,0.594,0,0.893,0    c0.082,0,0.076-0.006,0.076,0.076c0,0.115,0,0.231,0,0.348c0,0.018,0,0.031,0,0.047c0,0.021-0.008,0.027-0.029,0.029    c-0.02,0-0.035,0-0.055,0c-0.176,0-0.352,0-0.523,0c-0.17,0-0.34,0-0.51,0c-0.055,0-0.104-0.004-0.156-0.014    c-0.168-0.033-0.309-0.179-0.334-0.349c-0.008-0.051-0.014-0.103-0.014-0.153c0-0.324,0-0.648,0-0.976    c0-0.101,0.029-0.19,0.08-0.276c0.051-0.082,0.125-0.138,0.219-0.164c0.057-0.017,0.113-0.025,0.174-0.025    c0.228,0,0.453,0,0.681,0c0.06,0,0.112,0.01,0.168,0.025C47.403,27.843,47.498,27.953,47.534,28.119z M47.03,28.356    c-0.007-0.014-0.019-0.024-0.031-0.034c-0.022-0.017-0.049-0.021-0.075-0.021c-0.117,0-0.232,0-0.349,0    c-0.026,0-0.056,0.008-0.08,0.019c-0.047,0.021-0.078,0.053-0.078,0.106c0,0.023,0,0.051,0,0.072h0.002c0,0.033-0.002,0.064,0,0.1    c0,0.013,0.011,0.021,0.023,0.015c0.008-0.002,0.016-0.005,0.024-0.009c0.172-0.063,0.344-0.125,0.519-0.188    c0.01-0.004,0.021-0.008,0.03-0.014C47.035,28.392,47.039,28.376,47.03,28.356z M24.83,27.854c0-0.021-0.002-0.041-0.002-0.061    c-0.002-0.012-0.008-0.018-0.019-0.021c-0.012,0-0.022,0-0.034,0c-0.127,0-0.254,0-0.381,0c-0.012,0-0.022,0-0.034,0    c-0.014,0.004-0.021,0.012-0.022,0.021c-0.001,0.018-0.001,0.031-0.001,0.051c0,0.127,0,0.254,0,0.381c0,0.277,0,0.56,0,0.838    c0,0.021,0,0.045-0.006,0.064c-0.015,0.061-0.064,0.1-0.131,0.104c-0.047,0.002-0.094,0-0.143,0c-0.077,0-0.154,0.002-0.231,0    c-0.065-0.002-0.099-0.03-0.117-0.094C23.7,29.108,23.7,29.077,23.7,29.05c0.001-0.396,0.001-0.797,0-1.191    c0-0.02,0.001-0.041-0.001-0.061c0-0.013-0.008-0.021-0.021-0.021c-0.012,0-0.023,0-0.034,0c-0.127,0-0.255,0-0.382,0    c-0.012,0-0.022,0-0.033,0c-0.014,0.002-0.021,0.01-0.021,0.02c-0.002,0.014-0.002,0.023-0.002,0.035c0,0.479,0,0.957,0,1.438    c0,0.031,0.002,0.063,0.009,0.096c0.02,0.107,0.084,0.191,0.163,0.268c0.052,0.047,0.112,0.076,0.181,0.088    c0.044,0.01,0.09,0.014,0.136,0.014c0.182,0,0.363,0,0.545,0c0.114,0,0.096-0.016,0.098,0.105c0,0.002,0,0.004-0.001,0.006    c-0.008,0.055-0.033,0.094-0.086,0.11c-0.027,0.011-0.057,0.011-0.086,0.011c-0.29,0-0.581,0-0.872,0c-0.02,0-0.04,0-0.062,0.002    c-0.012,0-0.021,0.006-0.021,0.021c-0.001,0.01-0.002,0.019-0.002,0.026c0,0.146,0.001,0.295,0.002,0.441c0.422,0,0.844,0,1.266,0    c0.009-0.016,0.024-0.014,0.036-0.018c0.144-0.049,0.239-0.146,0.285-0.287c0.023-0.07,0.035-0.141,0.035-0.215    c-0.002-0.295-0.002-0.59-0.002-0.885C24.83,28.652,24.83,28.253,24.83,27.854z M20.895,28.233    c0.001,0.052,0.002,0.105,0.002,0.154c0,0.289,0,0.576,0,0.865c0.021,0.221-0.182,0.445-0.417,0.477    c-0.021,0.002-0.041,0.002-0.062,0.002c-0.193,0-0.387,0-0.579,0c-0.018,0-0.037,0-0.055,0c-0.013,0.002-0.02,0.011-0.021,0.023    c-0.001,0.02-0.001,0.041-0.001,0.061c0,0.214,0,0.427,0,0.642c-0.169,0-0.337,0-0.504,0c0.008-0.026,0.004-0.055,0.004-0.082    c0-0.678,0-1.354,0-2.034c0-0.095,0.01-0.187,0.035-0.275c0.04-0.139,0.131-0.225,0.27-0.264c0.063-0.017,0.127-0.027,0.193-0.023    c0.214,0,0.427,0,0.64,0c0.081,0,0.158,0.016,0.232,0.043c0.135,0.051,0.213,0.148,0.246,0.285    C20.889,28.147,20.895,28.188,20.895,28.233z M20.401,28.427c0-0.02,0.001-0.037-0.002-0.055c-0.008-0.059-0.042-0.09-0.099-0.1    c-0.01,0-0.019,0-0.027,0c-0.122,0-0.244,0.004-0.367,0c-0.06-0.002-0.099,0.025-0.124,0.076c-0.012,0.026-0.02,0.057-0.02,0.086    c0.001,0.213,0.001,0.428,0,0.641c0,0.023,0.004,0.051,0.013,0.072c0.012,0.033,0.035,0.059,0.067,0.07    c0.021,0.008,0.04,0.012,0.061,0.012c0.128,0,0.254,0,0.381,0c0.051,0,0.084-0.027,0.104-0.07    c0.011-0.023,0.013-0.049,0.013-0.074c-0.001-0.113,0-0.227,0-0.34C20.401,28.64,20.401,28.533,20.401,28.427z M26.898,27.774    c-0.268,0-0.534,0-0.803,0c-0.045,0-0.09,0.007-0.135,0.017c-0.161,0.037-0.258,0.136-0.288,0.298    c-0.009,0.045-0.013,0.09-0.013,0.137c0,0.168,0,0.334,0,0.504c0,0.166,0,0.334,0,0.502c0,0.055,0.002,0.104,0.014,0.156    c0.031,0.164,0.126,0.272,0.289,0.317c0.064,0.019,0.132,0.026,0.201,0.026c0.244,0,0.49,0,0.734,0c0.016,0,0.031,0,0.047-0.002    c0.014,0,0.021-0.008,0.023-0.02s0.002-0.023,0.002-0.035c0-0.129,0-0.258,0-0.387c0-0.012,0-0.023-0.002-0.035    s-0.013-0.02-0.023-0.02c-0.018-0.004-0.035-0.004-0.055-0.004c-0.131,0-0.265,0-0.396,0c-0.069,0-0.142,0.004-0.211,0    c-0.063-0.002-0.108-0.041-0.125-0.104c-0.006-0.023-0.008-0.049-0.008-0.072c0-0.219,0-0.434,0-0.646    c0-0.016,0-0.029,0.002-0.041c0.008-0.062,0.032-0.084,0.092-0.09c0.021-0.004,0.041-0.004,0.062-0.004c0.191,0,0.388,0,0.578,0    c0.021,0,0.037,0,0.055,0c0.021-0.002,0.027-0.008,0.029-0.027c0-0.027,0-0.057,0-0.082c0-0.105,0-0.209,0-0.312    C26.973,27.771,26.975,27.774,26.898,27.774z M21.42,24.677c0.096,0,0.19-0.008,0.284-0.022c0.099-0.019,0.188-0.054,0.267-0.115    c0.188-0.146,0.33-0.328,0.416-0.553c0.032-0.082,0.049-0.17,0.049-0.26c-0.001-0.266,0-0.531,0-0.797    c0-0.068-0.008-0.135-0.023-0.201c-0.056-0.238-0.189-0.426-0.383-0.57c-0.154-0.119-0.334-0.17-0.527-0.172    c-0.295,0-0.59,0-0.886,0c-0.036,0-0.072,0-0.108-0.002c-0.046-0.004-0.09-0.016-0.131-0.033c-0.068-0.031-0.106-0.086-0.109-0.16    c-0.001-0.039-0.002-0.078,0-0.117c0.004-0.07,0.038-0.123,0.104-0.154c0.027-0.012,0.056-0.021,0.084-0.027    c0.049-0.01,0.099-0.012,0.149-0.012c0.585,0,1.171,0,1.757,0c0.077,0,0.073,0.006,0.073-0.074c0-0.309,0-0.617,0-0.926    c0-0.086,0.006-0.08-0.082-0.08c-0.366,0-0.731,0-1.096,0c-0.325,0-0.649,0-0.974,0c-0.044,0-0.087,0-0.131,0.002    c-0.136,0.008-0.27,0.033-0.396,0.084c-0.225,0.088-0.379,0.244-0.459,0.473c-0.041,0.117-0.063,0.238-0.063,0.359    c-0.004,0.285-0.004,0.568-0.001,0.852c0.002,0.162,0.053,0.312,0.146,0.447c0.05,0.07,0.113,0.129,0.177,0.188    c0.196,0.174,0.426,0.264,0.688,0.27c0.029,0,0.059,0,0.088,0c0.274,0,0.549,0.002,0.824,0c0.068-0.002,0.116,0.025,0.154,0.08    c0.066,0.096,0.054,0.197,0.036,0.303c-0.001,0.002-0.002,0.004-0.002,0.006c-0.021,0.053-0.061,0.084-0.112,0.104    c-0.053,0.02-0.108,0.025-0.166,0.025c-0.593,0-1.185,0-1.777,0c-0.074,0-0.071-0.006-0.071,0.068c0,0.316,0,0.631,0,0.946    c0,0.072-0.005,0.07,0.069,0.07C20,24.677,20.709,24.677,21.42,24.677z M32.387,27.835c-0.078-0.039-0.16-0.062-0.248-0.062    c-0.19,0-0.381,0-0.571,0c-0.089,0-0.08,0.008-0.08-0.08c0-0.189,0-0.375,0-0.564c0-0.02-0.002-0.041-0.002-0.061    c-0.002-0.014-0.011-0.02-0.021-0.02c-0.016-0.002-0.031-0.002-0.049-0.002c-0.115,0-0.234,0-0.354,0    c-0.086,0-0.078-0.007-0.078,0.077c0,0.423,0,0.845,0,1.267c0,0.418,0,0.836,0,1.254c0,0.021,0,0.041,0.002,0.062    c0,0.016,0.012,0.021,0.025,0.023c0.018,0,0.03,0,0.047,0c0.113,0,0.229,0,0.342,0c0.086,0,0.084,0.012,0.084-0.086    c0-0.402,0-0.81,0-1.213c0-0.019,0.002-0.035,0-0.056c-0.004-0.055,0.049-0.096,0.092-0.103c0.012-0.002,0.021-0.002,0.033-0.002    c0.131,0,0.26,0,0.389,0c0.01,0,0.02,0,0.027,0.002c0.049,0.007,0.07,0.027,0.084,0.074c0.008,0.031,0.006,0.062,0.006,0.088    c0,0.402,0,0.802,0,1.199c0,0.021,0,0.041,0,0.062c0.002,0.025,0.008,0.029,0.035,0.031c0.016,0,0.029,0,0.047,0    c0.107,0,0.219,0,0.326,0c0.016,0,0.031,0,0.049,0c0.029-0.002,0.031-0.006,0.033-0.039c0-0.006,0-0.012,0-0.021    c0-0.489,0-0.979,0-1.471c0-0.039-0.006-0.078-0.018-0.115C32.557,27.978,32.493,27.888,32.387,27.835z M22.85,28.097    c0.012,0.051,0.02,0.103,0.02,0.154c-0.002,0.168-0.001,0.336-0.001,0.504c0,0.18,0.005,0.357-0.002,0.537    c-0.007,0.188-0.096,0.328-0.271,0.406c-0.052,0.021-0.107,0.031-0.165,0.031c-0.243,0-0.485,0-0.729,0    c-0.07-0.002-0.14-0.014-0.206-0.041c-0.149-0.062-0.233-0.172-0.252-0.334c-0.019-0.166-0.006-0.334-0.007-0.502    c0-0.039,0.008-0.074,0.018-0.111c0.044-0.166,0.153-0.264,0.318-0.303c0.054-0.014,0.108-0.016,0.162-0.016    c0.139,0.002,0.276,0,0.416,0c0.052,0,0.103,0,0.155,0c0.074,0.002,0.072,0.002,0.067-0.07c-0.006-0.074-0.029-0.101-0.104-0.104    c-0.019,0-0.036,0-0.055,0c-0.298,0-0.595,0-0.892,0c-0.084,0-0.079,0.006-0.079-0.076c0-0.109,0-0.219,0-0.326    c0-0.014,0-0.029,0.001-0.041c0.002-0.021,0.009-0.028,0.028-0.031c0.013,0,0.027,0,0.041,0c0.345,0,0.689,0,1.034,0    c0.078,0,0.154,0.013,0.228,0.031C22.727,27.845,22.815,27.947,22.85,28.097z M22.369,28.97c-0.002-0.022-0.014-0.043-0.035-0.055    c-0.028-0.016-0.056-0.027-0.09-0.027c-0.065,0-0.131,0-0.197,0c-0.059,0-0.118,0-0.177,0c-0.018,0-0.035,0-0.054,0.004    c-0.053,0.006-0.078,0.031-0.08,0.084c-0.003,0.054-0.003,0.107-0.002,0.162c0.004,0.055,0.039,0.094,0.092,0.104    c0.02,0.006,0.041,0.006,0.061,0.006c0.098,0,0.195,0,0.293,0c0.027,0,0.054,0,0.081-0.002c0.063-0.004,0.098-0.03,0.107-0.094    C22.378,29.091,22.375,29.031,22.369,28.97z M28.857,28.042c0.021,0.061,0.033,0.121,0.033,0.188    c-0.002,0.177-0.002,0.353-0.002,0.529c0,0.178,0.004,0.355,0,0.531c-0.002,0.145-0.062,0.264-0.176,0.354    c-0.072,0.058-0.154,0.084-0.246,0.088c-0.059,0.002-0.117,0-0.178,0c-0.17,0-0.34,0-0.512,0c-0.078,0-0.158-0.006-0.234-0.028    c-0.141-0.047-0.23-0.142-0.268-0.282c-0.014-0.056-0.02-0.111-0.02-0.169c-0.005-0.12-0.003-0.241,0-0.36    c0-0.082,0.014-0.162,0.051-0.236c0.061-0.117,0.16-0.184,0.285-0.211c0.053-0.016,0.106-0.018,0.162-0.018    c0.19,0.002,0.381,0,0.571,0c0.071,0,0.069,0.004,0.067-0.07c0-0.012,0-0.021-0.002-0.031c-0.004-0.027-0.02-0.047-0.043-0.059    c-0.024-0.012-0.051-0.017-0.078-0.017c-0.062,0-0.118,0-0.18,0c-0.244,0-0.488,0-0.734,0c-0.014,0-0.026,0-0.041,0    c-0.051,0-0.053-0.002-0.053-0.055c0-0.123,0-0.244,0-0.367c0-0.013,0-0.021,0.002-0.032c0.002-0.011,0.008-0.019,0.019-0.019    c0.019-0.003,0.035-0.003,0.055-0.003c0.343,0,0.687,0,1.027,0c0.082,0,0.164,0.013,0.241,0.035    c0.076,0.021,0.142,0.062,0.191,0.123C28.826,27.966,28.844,28.003,28.857,28.042z M28.395,28.972    c-0.002-0.022-0.016-0.043-0.034-0.055c-0.031-0.02-0.062-0.031-0.099-0.029c-0.063,0-0.131,0-0.194,0    c-0.07,0-0.142-0.002-0.212,0.002c-0.065,0.002-0.094,0.029-0.098,0.097c-0.004,0.045-0.002,0.092-0.002,0.137    c0.002,0.076,0.045,0.121,0.125,0.123c0.133,0.002,0.268,0,0.4,0c0.078,0,0.107-0.054,0.111-0.104    C28.398,29.085,28.395,29.029,28.395,28.972z M30.67,27.796c-0.004-0.012-0.01-0.02-0.021-0.021c-0.016,0-0.032,0-0.049,0    c-0.311,0-0.616,0-0.926,0c-0.049,0-0.096,0.005-0.143,0.015c-0.117,0.024-0.215,0.08-0.279,0.188    c-0.037,0.064-0.062,0.14-0.062,0.213c-0.002,0.144,0,0.281,0,0.423c0,0.067,0.021,0.133,0.064,0.185    c0.104,0.123,0.229,0.204,0.396,0.204c0.121,0,0.244,0,0.367,0c0.016,0,0.031-0.002,0.049,0c0.051,0.007,0.086,0.041,0.09,0.093    c0.002,0.016,0.002,0.032,0,0.049c-0.004,0.049-0.027,0.08-0.078,0.088c-0.021,0.004-0.045,0.004-0.066,0.004    c-0.252,0-0.504,0-0.756,0c-0.02,0-0.035,0-0.055,0c-0.018,0.002-0.023,0.012-0.023,0.027c0,0.012,0,0.021,0,0.033    c0,0.127,0,0.254,0,0.381c0,0.012,0,0.022,0,0.034c0.002,0.013,0.008,0.021,0.021,0.021c0.019,0.004,0.037,0.004,0.055,0.004    c0.158,0,0.318,0,0.478,0c0.166,0,0.332,0,0.498,0c0.102-0.004,0.195-0.027,0.272-0.102c0.031-0.027,0.058-0.06,0.08-0.093    c0.043-0.065,0.076-0.135,0.08-0.215c0.004-0.125,0.006-0.25,0.011-0.373c0-0.022-0.003-0.045-0.009-0.067    c-0.017-0.086-0.058-0.162-0.11-0.229c-0.056-0.066-0.121-0.115-0.205-0.141c-0.037-0.01-0.076-0.01-0.114-0.01    c-0.13,0-0.259,0-0.388,0c-0.033,0-0.062-0.005-0.095-0.013c-0.014-0.004-0.026-0.011-0.036-0.019    c-0.031-0.026-0.05-0.088-0.031-0.125c0.02-0.041,0.047-0.071,0.098-0.076c0.02,0,0.036,0,0.055,0c0.252,0,0.504,0,0.756,0    c0.021,0,0.041,0,0.062,0c0.012-0.002,0.02-0.01,0.021-0.022c0-0.01,0-0.021,0-0.032c0-0.131,0-0.265-0.002-0.396    C30.67,27.813,30.67,27.806,30.67,27.796z" fill="#FFFFFF"/>
	</g>
</g>
<g>
</g>
<g>
</g>
<g>
</g>
<g>
</g>
<g>
</g>
<g>
</g>
<g>
</g>
<g>
</g>
<g>
</g>
<g>
</g>
<g>
</g>
<g>
</g>
<g>
</g>
<g>
</g>
<g>
</g>
</svg>
